<svg xmlns="http://www.w3.org/2000/svg" viewBox="0 0 128 128" role="img" aria-label="pet common">
  <defs>
    <linearGradient id="bg" x1="0" y1="0" x2="0" y2="1">
      <stop offset="0" stop-color="#94a3b8"/>
      <stop offset="1" stop-color="#475569"/>
    </linearGradient>
  </defs>
  <rect x="4" y="4" width="120" height="120" rx="22" fill="url(#bg)"/>
  <rect x="4" y="4" width="120" height="120" rx="22" fill="none" stroke="#ffffff" stroke-opacity="0.35" stroke-width="2"/>
  <path d="M64 46 C48 46 38 60 38 76 C38 94 50 102 64 102 C78 102 90 94 90 76 C90 60 80 46 64 46 Z M44 34 A9 9 0 1 0 44 52 A9 9 0 0 0 44 34 Z M84 34 A9 9 0 1 0 84 52 A9 9 0 0 0 84 34 Z" fill="#ffffff" fill-opacity="0.92"/>
  <circle cx="108" cy="20" r="7" fill="#475569" stroke="#ffffff" stroke-opacity="0.7" stroke-width="1.5"/>
</svg>
