<svg xmlns="http://www.w3.org/2000/svg" viewBox="0 0 2048 2048">
  <defs>
    <linearGradient id="whiteGradient" x1="0%" y1="0%" x2="0%" y2="100%">
      <stop offset="0%" style="stop-color:#FFFFFF;stop-opacity:1" />
      <stop offset="50%" style="stop-color:#F5F5F5;stop-opacity:1" />
      <stop offset="100%" style="stop-color:#D8D8D8;stop-opacity:1" />
    </linearGradient>
    <radialGradient id="whiteHighlight" cx="30%" cy="30%">
      <stop offset="0%" style="stop-color:#FFFFFF;stop-opacity:0.8" />
      <stop offset="100%" style="stop-color:#FFFFFF;stop-opacity:0" />
    </radialGradient>
    <filter id="shadow">
      <feGaussianBlur in="SourceAlpha" stdDeviation="8"/>
      <feOffset dx="4" dy="8" result="offsetblur"/>
      <feComponentTransfer>
        <feFuncA type="linear" slope="0.4"/>
      </feComponentTransfer>
      <feMerge>
        <feMergeNode/>
        <feMergeNode in="SourceGraphic"/>
      </feMerge>
    </filter>
  </defs>
  <!-- Shadow layer -->
  <path fill="#000000" opacity="0.2" d="m501.6 1811 48.4-354.4-260-269.2s-166.4-288.2 29.9-481C582.2 448.7 826 727.2 826 727.2l195.6-165.7 184 165.7s216.4-232.5 430.4-76c214 156.5 255.4 317.6 117.4 531.6-138.1 214-250.9 280.7-250.9 280.7L1558 1811z" transform="translate(6, 12)"/>
  <!-- Main body with gradient -->
  <path fill="url(#whiteGradient)" filter="url(#shadow)" d="m501.6 1811 48.4-354.4-260-269.2s-166.4-288.2 29.9-481C582.2 448.7 826 727.2 826 727.2l195.6-165.7 184 165.7s216.4-232.5 430.4-76c214 156.5 255.4 317.6 117.4 531.6-138.1 214-250.9 280.7-250.9 280.7L1558 1811z"/>
  <!-- Highlight overlay -->
  <path fill="url(#whiteHighlight)" opacity="0.6" d="m501.6 1811 48.4-354.4-260-269.2s-166.4-288.2 29.9-481C582.2 448.7 826 727.2 826 727.2l195.6-165.7 184 165.7s216.4-232.5 430.4-76c214 156.5 255.4 317.6 117.4 531.6-138.1 214-250.9 280.7-250.9 280.7L1558 1811z"/>
  <!-- Outline with gradient -->
  <path fill="none" stroke="url(#whiteGradient)" stroke-width="10" stroke-linecap="round" stroke-linejoin="round" d="M977 298v-95h94v95h107v95h-107v153q-48-16-94 0V393H870v-95zm47 314q-47 0-136 121-31-36-50-55 93-140 186-140 92 0 186 140-20 19-50 55-90-121-136-121zm-447 907-26 156 145-84zm410-206q-1-147-36.5-274.5T870 845q-45-88-131.5-153T570 627q-103 0-208 93T257 949q0 109 86.5 236T546 1408q212-88 441-95zm37 530H448l61-365q-325-280-326-535-1-159 125-274.5T575 553q78 0 158.5 47T876 719q61 74 98.5 164.5T1024 1034q12-60 49-150.5t99-164.5q61-72 142-119t159-47q140 0 266 115.5T1865 943q-2 255-326 535l61 365zm0-74h489l-50-298q-216-84-439-84t-439 84l-50 298zm447-250 26 156-145-84zm-410-206q229 7 441 95 115-96 202-223t87-236q0-136-105.5-229T1478 627q-83 0-169.5 65T1178 845q-46 66-81.5 193.5T1061 1313zm-176 233 141-84 137 86-141 84z"/>
</svg>